# xmcd
#
# Track frame offsets:
#	150
#	17412
#	36425
#	59180
#	82587
#	106672
#	127895
#	158312
#	176257
#	193000
#	215440
#	243680
#
# Disc length: 3545 seconds
#
# Revision: 3
# Processed by: cddbd v1.4PL0 Copyright (c) Steve Scherf et al.
# Submitted via: audiograbber 1.81.02
#
DISCID=8f0dd70c
DTITLE=Robben Ford - Blue Moon
DYEAR=2002
DGENRE=Blues
TTITLE0=Up The Line
TTITLE1=Hard To Please
TTITLE2=Don't Deny Your Love
TTITLE3=Make Me Your Only One
TTITLE4=Indianola
TTITLE5=My Everything
TTITLE6=The Way You Treated Me (You're Gonna Be Sorry)
TTITLE7=Sometime Love
TTITLE8=Good To Love
TTITLE9=Something For The Pain
TTITLE10=It Don't Make Sense (You Can't Make Peace)
TTITLE11=Remix: Don't Deny Your Love
EXTD=Concord Records 2112\n© 2002
EXTT0=
EXTT1=
EXTT2=
EXTT3=
EXTT4=
EXTT5=
EXTT6=
EXTT7=
EXTT8=
EXTT9=
EXTT10=
EXTT11=
PLAYORDER=
